{
  "accessors": [
    {
      "bufferView": 0,
      "componentType": 5125,
      "count": 30204,
      "type": "SCALAR"
    },
    {
      "bufferView": 1,
      "componentType": 5126,
      "count": 6279,
      "max": [
        31.1767749786377,
        70.465087890625,
        12.0738887786865
      ],
      "min": [
        -31.0016345977783,
        -10.5571269989014,
        -11.8891849517822
      ],
      "type": "VEC3"
    },
    {
      "bufferView": 2,
      "componentType": 5126,
      "count": 6279,
      "type": "VEC3"
    },
    {
      "bufferView": 3,
      "componentType": 5126,
      "count": 6279,
      "type": "VEC4"
    },
    {
      "bufferView": 4,
      "componentType": 5126,
      "count": 6279,
      "type": "VEC2"
    }
  ],
  "asset": {
    "generator": "Adobe Substance 3D Painter 8.3.0",
    "version": "2.0"
  },
  "bufferViews": [
    {
      "buffer": 0,
      "byteLength": 120816,
      "target": 34963
    },
    {
      "buffer": 0,
      "byteLength": 75348,
      "byteOffset": 120816,
      "target": 34962
    },
    {
      "buffer": 0,
      "byteLength": 75348,
      "byteOffset": 196164,
      "target": 34962
    },
    {
      "buffer": 0,
      "byteLength": 100464,
      "byteOffset": 271512,
      "target": 34962
    },
    {
      "buffer": 0,
      "byteLength": 50232,
      "byteOffset": 371976,
      "target": 34962
    }
  ],
  "buffers": [
    {
      "byteLength": 422208,
      "uri": "Raccoon_FINAL_furdone.bin"
    }
  ],
  "images": [
    {
      "uri": "lambert1_baseColor_1001.png"
    },
    {
      "uri": "lambert1_occlusionRoughnessMetallic_1001.png"
    },
    {
      "uri": "lambert1_normal_1001.png"
    }
  ],
  "materials": [
    {
      "alphaMode": "OPAQUE",
      "name": "lambert1_1001",
      "normalTexture": {
        "index": 2
      },
      "occlusionTexture": {
        "index": 1
      },
      "pbrMetallicRoughness": {
        "baseColorTexture": {
          "index": 0
        },
        "metallicRoughnessTexture": {
          "index": 1
        }
      }
    }
  ],
  "meshes": [
    {
      "name": "Racoon_FINAL",
      "primitives": [
        {
          "attributes": {
            "NORMAL": 2,
            "POSITION": 1,
            "TANGENT": 3,
            "TEXCOORD_0": 4
          },
          "indices": 0,
          "material": 0,
          "mode": 4
        }
      ]
    }
  ],
  "nodes": [
    {
      "children": [
        1
      ],
      "name": "RootNode"
    },
    {
      "children": [
        2
      ],
      "name": "Racoon_FINAL",
      "scale": [
        0.00999999977648258,
        0.00999999977648258,
        0.00999999977648258
      ],
      "translation": [
        0.0,
        -3.5527136788005e-15,
        0.0
      ]
    },
    {
      "mesh": 0,
      "name": "Racoon_FINAL"
    }
  ],
  "samplers": [
    {
      "magFilter": 9729,
      "minFilter": 9985,
      "wrapS": 10497,
      "wrapT": 10497
    }
  ],
  "scene": 0,
  "scenes": [
    {
      "name": "Scene",
      "nodes": [
        0
      ]
    }
  ],
  "textures": [
    {
      "sampler": 0,
      "source": 0
    },
    {
      "sampler": 0,
      "source": 1
    },
    {
      "sampler": 0,
      "source": 2
    }
  ]
}